<?xml version="1.0" encoding="iso-8859-1"?>
<!-- Uploaded to: SVG Repo, www.svgrepo.com, Generator: SVG Repo Mixer Tools -->
<svg height="800px" width="800px" version="1.1" id="Layer_1" xmlns="http://www.w3.org/2000/svg" xmlns:xlink="http://www.w3.org/1999/xlink" 
	 viewBox="0 0 512 512" xml:space="preserve">
<g>
	<path style="fill:#199172;" d="M422.861,449.123c0-30.495,9.782-62.859,22.133-70.279c0.746-0.449,0.377-1.581-0.503-1.581H134.353
		c-30.163,0-58.664,16.977-70.422,44.76C44.502,467.905,77.665,512,121.122,512h331.156c0.898,0,1.24-1.177,0.449-1.599
		C440.763,503.979,422.861,478.98,422.861,449.123"/>
	<path style="fill:#25B99A;" d="M443.595,0H138.847c-44.508,0-80.6,36.092-80.6,80.6v341.576v26.947
		c0-34.726,28.151-71.86,71.86-71.86h317.934c3.153,0,5.713-2.56,5.713-5.713V10.159C453.754,4.545,449.209,0,443.595,0"/>
	<path style="fill:#EDEBDA;" d="M359.937,188.632h-208.15c-11.974,0-21.684-9.71-21.684-21.675v-62.832
		c0-12.863,10.429-23.283,23.283-23.283h204.953c12.854,0,23.274,10.42,23.274,23.283v62.832
		C381.612,178.922,371.91,188.632,359.937,188.632"/>
	<g>
		<path style="fill:#CEC9AE;" d="M300.774,125.754h-80.842c-4.967,0-8.982-4.015-8.982-8.982c0-4.967,4.015-8.982,8.982-8.982
			h80.842c4.967,0,8.982,4.015,8.982,8.982C309.756,121.739,305.741,125.754,300.774,125.754"/>
		<path style="fill:#CEC9AE;" d="M327.721,161.684H184.002c-4.967,0-8.982-4.015-8.982-8.982c0-4.967,4.015-8.982,8.982-8.982
			h143.719c4.967,0,8.982,4.015,8.982,8.982C336.704,157.669,332.689,161.684,327.721,161.684"/>
	</g>
	<g>
		<path style="fill:#25B99A;" d="M309.756,413.193c-4.967,0-8.982,4.015-8.982,8.982s4.015,8.982,8.982,8.982H423.95
			c0.728-6.216,1.832-12.27,3.207-17.965H309.756z"/>
		<path style="fill:#25B99A;" d="M336.704,458.105c-4.967,0-8.982,4.015-8.982,8.982c0,4.967,4.015,8.982,8.982,8.982h91.109
			c-2.021-5.605-3.539-11.596-4.303-17.965H336.704z"/>
	</g>
</g>
</svg>